<svg width="128" height="128" viewBox="0 0 128 128" fill="none" xmlns="http://www.w3.org/2000/svg">
<g clip-path="url(#clip0_1_2)">
<path d="M96 0H32C14.3269 0 0 14.3269 0 32V96C0 113.674 14.3269 128 32 128H96C113.674 128 128 113.674 128 96V32C128 14.3269 113.674 0 96 0Z" fill="white" fill-opacity="0.3"/>
<path d="M76.7083 62.7588C74.2393 62.7588 71.8714 61.778 70.1256 60.0321L67.9679 57.8744C66.222 56.1286 65.2412 53.7607 65.2412 51.2917V46.5968C65.2412 45.9112 64.6855 45.3555 64 45.3555C63.3145 45.3555 62.7587 45.9112 62.7587 46.5968V51.2918C62.7587 53.7608 61.7779 56.1286 60.0321 57.8745L57.8744 60.0321C56.1286 61.778 53.7607 62.7588 51.2918 62.7588H46.5967C45.9112 62.7588 45.3555 63.3145 45.3555 64C45.3555 64.6855 45.9112 65.2412 46.5967 65.2412H51.2918C53.7607 65.2412 56.1286 66.222 57.8744 67.9679L60.0321 70.1256C61.7779 71.8714 62.7587 74.2392 62.7587 76.7082V81.4032C62.7587 82.0888 63.3145 82.6445 64 82.6445C64.6855 82.6445 65.2412 82.0888 65.2412 81.4033V76.7083C65.2412 74.2393 66.222 71.8714 67.9679 70.1256L70.1256 67.9679C71.8714 66.222 74.2393 65.2412 76.7082 65.2412H81.4032C82.0888 65.2412 82.6445 64.6855 82.6445 64C82.6445 63.3145 82.0888 62.7588 81.4032 62.7588H76.7083Z" fill="url(#paint0_linear_1_2)"/>
</g>
<defs>
<linearGradient id="paint0_linear_1_2" x1="45.3555" y1="64" x2="91.3669" y2="34.7641" gradientUnits="userSpaceOnUse">
<stop stop-color="#EEFD75"/>
<stop offset="0.274038" stop-color="#FC5B31"/>
<stop offset="0.572115" stop-color="#E3AFF4"/>
</linearGradient>
<clipPath id="clip0_1_2">
<rect width="128" height="128" fill="white"/>
</clipPath>
</defs>
</svg>
