<svg width="380" height="56" viewBox="0 0 380 56" fill="none" xmlns="http://www.w3.org/2000/svg">
<rect width="379.345" height="54.4971" transform="translate(0.655273 0.944153)" fill="black"/>
<rect width="359.345" height="34.4971" transform="translate(10.6553 10.9442)" fill="black"/>
<g opacity="0.5">
<path d="M358.063 30.888V38.3494H355.591V19.7766C355.735 19.7766 355.864 19.7766 355.992 19.7766C358.569 19.7766 361.146 19.7853 363.723 19.768C364.13 19.7653 364.467 19.8235 364.743 20.1196C365.187 20.5954 365.629 21.0746 366.088 21.5374C366.449 21.9011 366.839 22.2389 367.207 22.5958C367.571 22.9456 367.929 23.3008 368.276 23.6645C368.337 23.7288 368.358 23.8477 368.358 23.9423C368.364 25.2204 368.369 26.4983 368.352 27.7764C368.35 27.9092 368.248 28.0707 368.142 28.1687C367.532 28.7366 366.907 29.2895 366.277 29.8548C366.76 30.585 367.226 31.2968 367.699 32.0036C367.856 32.2372 368.059 32.4447 368.191 32.6878C368.288 32.8666 368.352 33.0845 368.353 33.2851C368.366 34.8453 368.361 36.4063 368.361 37.9673C368.361 38.0889 368.361 38.2104 368.361 38.3503H365.865C365.865 38.2321 365.865 38.1141 365.865 37.9951C365.865 36.6494 365.877 35.3036 365.853 33.958C365.85 33.7157 365.755 33.4458 365.618 33.2391C365.112 32.4742 364.573 31.7292 364.037 30.9826C363.988 30.9149 363.874 30.8498 363.791 30.8498C361.927 30.8437 360.063 30.8463 358.198 30.848C358.165 30.848 358.133 30.8663 358.063 30.888ZM358.088 22.1625V28.431C358.144 28.4457 358.167 28.457 358.19 28.457C360.124 28.4587 362.059 28.4621 363.992 28.4543C364.105 28.4543 364.238 28.3841 364.328 28.3094C364.767 27.9413 365.209 27.5731 365.621 27.1791C365.748 27.0574 365.846 26.8542 365.856 26.6832C365.885 26.1198 365.894 25.5519 365.853 24.9893C365.837 24.781 365.698 24.5484 365.545 24.3877C365.116 23.9336 364.645 23.5126 364.195 23.0732C363.902 22.7859 363.621 22.4871 363.327 22.2015C363.287 22.1634 363.194 22.1642 363.125 22.1642C361.466 22.1625 359.804 22.1625 358.089 22.1625H358.088Z" fill="white"/>
<path d="M310.081 38.3602H307.581C307.581 38.2482 307.581 38.1414 307.581 38.0346C307.581 33.3758 307.581 28.7178 307.584 24.059C307.584 23.9401 307.587 23.789 307.658 23.7092C307.989 23.3367 308.351 22.9893 308.687 22.6221C308.889 22.4033 309.06 22.1585 309.258 21.9371C309.819 21.3085 310.39 20.6886 310.95 20.0574C311.128 19.8551 311.323 19.7675 311.612 19.7692C313.108 19.784 314.604 19.7787 316.1 19.7727C316.321 19.7718 316.471 19.8109 316.637 19.9906C317.052 20.4421 317.532 20.8406 317.969 21.2764C318.396 21.7036 318.794 22.1576 319.218 22.5882C319.587 22.9624 319.982 23.3124 320.344 23.6909C320.424 23.7742 320.441 23.9349 320.441 24.0599C320.447 26.5473 320.445 29.0347 320.445 31.5222C320.445 33.6814 320.445 35.8415 320.445 38.0007C320.445 38.111 320.445 38.2221 320.445 38.3498H317.962V30.8684H310.081V38.3602ZM317.916 28.4435C317.93 28.3861 317.953 28.3436 317.953 28.3011C317.955 27.1715 317.958 26.0411 317.953 24.9116C317.953 24.8187 317.916 24.7015 317.851 24.6364C317.057 23.8377 316.259 23.045 315.454 22.2584C315.392 22.1984 315.271 22.1663 315.178 22.1654C314.312 22.1585 313.446 22.1602 312.581 22.1629C312.502 22.1629 312.394 22.1663 312.349 22.2115C312.085 22.4806 311.835 22.7619 311.581 23.0406C311.176 23.4877 310.79 23.954 310.355 24.3742C310.172 24.5513 310.073 24.7076 310.075 24.9524C310.081 26.0143 310.077 27.076 310.079 28.1388C310.079 28.236 310.093 28.334 310.103 28.4435H317.916Z" fill="white"/>
<path d="M334.227 35.9697V38.346H324.118V35.9923H327.929V22.1661H324.108V19.8028H334.219V22.153H330.479V35.9697H334.227Z" fill="white"/>
<path d="M335.721 33.2595C335.764 32.4208 336.213 31.6447 337.138 31.0751C337.587 30.799 338.043 30.7513 338.531 30.6783C339.183 30.5794 339.861 30.5056 340.465 30.2721C341.129 30.0151 341.747 29.6252 342.339 29.2302C343.422 28.5061 344.333 27.6057 345.023 26.524C345.423 25.8937 345.803 25.253 345.829 24.4724C345.85 23.8247 346.145 23.2525 346.614 22.7898C347.498 21.9216 348.523 21.6533 349.786 22.0953C350.311 22.2793 350.776 22.6631 351.13 23.177C351.63 23.902 351.728 24.64 351.518 25.4257C351.36 26.0169 350.954 26.4702 350.474 26.8965C349.804 27.4904 349 27.4313 348.213 27.4808C347.339 27.5363 346.573 27.8741 345.825 28.2552C344.942 28.7058 344.153 29.2918 343.492 30.0046C342.975 30.5628 342.549 31.188 342.166 31.8514C341.784 32.5137 341.626 33.2014 341.475 33.9176C341.323 34.6321 340.95 35.2165 340.307 35.6801C339.301 36.4034 338.258 36.4215 337.221 35.8997C336.226 35.3989 335.726 34.5366 335.721 33.2595Z" fill="white"/>
<path d="M267.831 20.4147H269.794V24.6501H273.596V26.5326H269.794V32.7882C269.794 34.1603 270.579 34.9688 271.78 34.9688H273.596V36.7085H271.706C269.352 36.7085 267.831 35.2383 267.831 32.8372V20.4147ZM266.702 26.3898H265.108C262.605 26.3898 261.895 28.3533 261.895 31.269V36.7085H259.932V24.6501H261.895V27.1494C262.409 25.4587 263.44 24.6501 265.255 24.6501H266.702V26.3898Z" fill="white"/>
<path d="M294.243 36.8864V26.6003H291.886V24.566H294.243V23.6974C294.243 22.8135 294.434 22.0668 294.816 21.4572C295.213 20.8477 295.731 20.3829 296.372 20.0629C297.028 19.7429 297.752 19.5829 298.546 19.5829C298.714 19.5829 298.897 19.5981 299.095 19.6286C299.308 19.6438 299.485 19.6667 299.621 19.6972V21.5944C299.499 21.5639 299.355 21.5487 299.186 21.5487C299.019 21.5334 298.889 21.5258 298.798 21.5258C298.096 21.5258 297.516 21.6934 297.059 22.0287C296.616 22.3639 296.394 22.9202 296.394 23.6974V24.566H299.324V26.6003H296.394V36.8864H294.243Z" fill="white"/>
<path d="M285.121 37.1607C283.93 37.1607 282.855 36.8865 281.894 36.3378C280.933 35.774 280.17 35.0045 279.605 34.0293C279.04 33.0539 278.759 31.9491 278.759 30.7148C278.759 29.4804 279.034 28.3833 279.583 27.4233C280.146 26.4632 280.91 25.7014 281.871 25.1374C282.832 24.5737 283.916 24.2918 285.121 24.2918C286.311 24.2918 287.386 24.5737 288.348 25.1374C289.308 25.6861 290.064 26.4404 290.613 27.4004C291.177 28.3604 291.459 29.4652 291.459 30.7148C291.459 31.9644 291.17 33.0768 290.591 34.0521C290.01 35.0121 289.241 35.774 288.279 36.3378C287.333 36.8865 286.28 37.1607 285.121 37.1607ZM285.121 35.1036C285.884 35.1036 286.569 34.9131 287.181 34.5321C287.806 34.1512 288.294 33.6254 288.645 32.955C289.011 32.2844 289.194 31.5377 289.194 30.7148C289.194 29.8766 289.011 29.1376 288.645 28.4976C288.294 27.8423 287.806 27.3242 287.181 26.9433C286.569 26.547 285.884 26.349 285.121 26.349C284.343 26.349 283.641 26.547 283.015 26.9433C282.405 27.3242 281.917 27.8423 281.551 28.4976C281.185 29.1376 281.002 29.8766 281.002 30.7148C281.002 31.5377 281.185 32.2844 281.551 32.955C281.917 33.6254 282.405 34.1512 283.015 34.5321C283.641 34.9131 284.343 35.1036 285.121 35.1036Z" fill="white"/>
<path d="M251.32 37.1607C250.511 37.1607 249.794 37.0161 249.169 36.7265C248.558 36.4217 248.078 36.0102 247.727 35.4921C247.376 34.9588 247.201 34.3492 247.201 33.6635C247.201 33.0082 247.338 32.4215 247.612 31.9034C247.903 31.3701 248.344 30.9205 248.94 30.5548C249.55 30.1891 250.312 29.93 251.229 29.7777L255.806 29.0233V30.8063L251.709 31.492C250.916 31.6291 250.336 31.8806 249.97 32.2463C249.619 32.612 249.444 33.0616 249.444 33.5949C249.444 34.0978 249.641 34.5169 250.038 34.852C250.45 35.1873 250.961 35.355 251.571 35.355C252.349 35.355 253.021 35.195 253.586 34.875C254.165 34.5397 254.615 34.0902 254.936 33.5263C255.271 32.9625 255.44 32.3378 255.44 31.652V28.5204C255.44 27.85 255.188 27.309 254.684 26.8976C254.196 26.4709 253.547 26.2575 252.738 26.2575C252.036 26.2575 251.412 26.4404 250.863 26.8062C250.328 27.1567 249.932 27.629 249.672 28.2233L247.819 27.2633C248.047 26.6994 248.413 26.1965 248.917 25.7546C249.42 25.2975 250.007 24.9394 250.678 24.6803C251.351 24.4213 252.052 24.2918 252.784 24.2918C253.73 24.2918 254.562 24.4746 255.279 24.8403C255.995 25.1908 256.552 25.6861 256.949 26.3261C257.361 26.9509 257.567 27.6823 257.567 28.5204V36.8865H255.485V34.5549L255.873 34.6922C255.615 35.1798 255.263 35.6065 254.822 35.9722C254.379 36.3378 253.86 36.6274 253.265 36.8408C252.67 37.0541 252.022 37.1607 251.32 37.1607Z" fill="white"/>
<path d="M233.311 41.458V24.5661H235.393V27.2176L235.119 26.6918C235.576 25.9603 236.202 25.3813 236.995 24.9546C237.788 24.5127 238.697 24.2918 239.718 24.2918C240.879 24.2918 241.916 24.5737 242.831 25.1374C243.762 25.7014 244.494 26.4709 245.029 27.4461C245.562 28.4061 245.83 29.5034 245.83 30.7377C245.83 31.9416 245.562 33.0311 245.029 34.0064C244.494 34.9816 243.762 35.7512 242.831 36.315C241.916 36.8788 240.871 37.1607 239.696 37.1607C238.705 37.1607 237.796 36.9398 236.973 36.4978C236.164 36.0559 235.539 35.4312 235.096 34.6235L235.44 34.2578V41.458H233.311ZM239.535 35.1036C240.314 35.1036 241.009 34.9131 241.619 34.5321C242.229 34.1512 242.701 33.6331 243.038 32.9777C243.388 32.3073 243.563 31.5606 243.563 30.7377C243.563 29.8843 243.388 29.1376 243.038 28.4976C242.701 27.8423 242.229 27.3242 241.619 26.9433C241.009 26.547 240.314 26.349 239.535 26.349C238.758 26.349 238.056 26.5395 237.43 26.9203C236.82 27.3013 236.332 27.8271 235.966 28.4976C235.615 29.1528 235.44 29.8996 235.44 30.7377C235.44 31.5606 235.615 32.3073 235.966 32.9777C236.332 33.6331 236.82 34.1512 237.43 34.5321C238.056 34.9131 238.758 35.1036 239.535 35.1036Z" fill="white"/>
</g>
<path fill-rule="evenodd" clip-rule="evenodd" d="M46.1033 25.052H40.3691L46.1033 30.7794V25.052Z" fill="#FFA301"/>
<path d="M23.1045 38.0599C16.7749 38.0599 13.1523 33.2501 13.1523 27.7248C13.1523 22.1995 16.7749 17.3897 23.1045 17.3897C27.802 17.3897 31.8625 20.1722 32.4198 24.7037H28.5584C28.2 22.438 25.8911 20.7685 23.1841 20.7685C19.1635 20.7685 17.173 23.869 17.173 27.7248C17.173 31.5806 19.2033 34.6811 23.1841 34.6811C25.9309 34.6811 27.9612 33.2501 28.5982 30.9843H32.4198C31.7829 35.1979 28.2 38.0599 23.1045 38.0599Z" fill="white"/>
<path d="M152.656 37.9547C150.729 37.9547 149.052 37.4795 147.624 36.5291C146.197 35.5787 145.186 34.2958 144.592 32.6802L147.233 31.3972C147.779 32.5376 148.528 33.4404 149.479 34.1057C150.431 34.7709 151.49 35.1036 152.656 35.1036C153.702 35.1036 154.571 34.8541 155.26 34.3551C155.95 33.8562 156.295 33.2029 156.295 32.3951C156.295 31.8248 156.128 31.3735 155.795 31.0409C155.486 30.6844 155.105 30.4113 154.653 30.2212C154.202 30.0074 153.786 29.8529 153.405 29.7579L150.515 28.9382C148.778 28.4392 147.506 27.7265 146.697 26.7999C145.912 25.8733 145.519 24.7923 145.519 23.5568C145.519 22.4164 145.804 21.4304 146.376 20.5988C146.97 19.7435 147.767 19.0783 148.766 18.6031C149.79 18.1279 150.93 17.8903 152.191 17.8903C153.88 17.8903 155.39 18.318 156.723 19.1733C158.079 20.0286 159.042 21.2284 159.613 22.7727L156.901 24.0202C156.473 23.0223 155.831 22.2382 154.974 21.668C154.118 21.074 153.154 20.777 152.084 20.777C151.109 20.777 150.336 21.0265 149.766 21.5254C149.194 22.0006 148.909 22.6065 148.909 23.343C148.909 23.8894 149.052 24.3409 149.337 24.6972C149.622 25.0298 149.967 25.2912 150.372 25.4813C150.776 25.6475 151.169 25.7901 151.55 25.9089L154.689 26.8355C156.259 27.287 157.473 27.9879 158.328 28.9382C159.209 29.8885 159.649 31.029 159.649 32.3595C159.649 33.4286 159.352 34.3909 158.756 35.2461C158.162 36.1015 157.341 36.7667 156.295 37.2419C155.248 37.7171 154.035 37.9547 152.656 37.9547Z" fill="white"/>
<path d="M135.93 37.9547C134.003 37.9547 132.326 37.4795 130.899 36.5291C129.471 35.5787 128.46 34.2958 127.866 32.6802L130.506 31.3972C131.053 32.5376 131.802 33.4404 132.754 34.1057C133.705 34.7709 134.764 35.1036 135.93 35.1036C136.976 35.1036 137.844 34.8541 138.534 34.3551C139.224 33.8562 139.569 33.2029 139.569 32.3951C139.569 31.8248 139.402 31.3735 139.069 31.0409C138.76 30.6844 138.38 30.4113 137.928 30.2212C137.476 30.0074 137.059 29.8529 136.679 29.7579L133.789 28.9382C132.052 28.4392 130.78 27.7265 129.971 26.7999C129.186 25.8733 128.793 24.7923 128.793 23.5568C128.793 22.4164 129.079 21.4304 129.65 20.5988C130.244 19.7435 131.041 19.0783 132.04 18.6031C133.063 18.1279 134.205 17.8903 135.466 17.8903C137.154 17.8903 138.665 18.318 139.997 19.1733C141.353 20.0286 142.316 21.2284 142.887 22.7727L140.175 24.0202C139.747 23.0223 139.105 22.2382 138.249 21.668C137.392 21.074 136.429 20.777 135.359 20.777C134.383 20.777 133.61 21.0265 133.039 21.5254C132.469 22.0006 132.183 22.6065 132.183 23.343C132.183 23.8894 132.326 24.3409 132.611 24.6972C132.897 25.0298 133.242 25.2912 133.646 25.4813C134.05 25.6475 134.443 25.7901 134.823 25.9089L137.963 26.8355C139.533 27.287 140.746 27.9879 141.603 28.9382C142.483 29.8885 142.923 31.029 142.923 32.3595C142.923 33.4286 142.626 34.3909 142.031 35.2461C141.436 36.1015 140.615 36.7667 139.569 37.2419C138.522 37.7171 137.309 37.9547 135.93 37.9547Z" fill="white"/>
<path d="M115.516 37.9547C114.255 37.9547 113.137 37.729 112.162 37.2775C111.211 36.8024 110.461 36.1608 109.914 35.353C109.367 34.5215 109.094 33.5712 109.094 32.502C109.094 31.4804 109.308 30.5657 109.736 29.7579C110.188 28.9263 110.877 28.2254 111.805 27.6552C112.757 27.085 113.946 26.6811 115.373 26.4435L122.509 25.2675V28.0472L116.123 29.1164C114.886 29.3302 113.982 29.7222 113.411 30.2924C112.864 30.8626 112.59 31.5635 112.59 32.3951C112.59 33.1791 112.899 33.8325 113.518 34.3551C114.16 34.8778 114.957 35.1392 115.909 35.1392C117.122 35.1392 118.168 34.8898 119.048 34.3908C119.952 33.8682 120.654 33.1673 121.153 32.2882C121.677 31.4091 121.938 30.435 121.938 29.3658V24.4834C121.938 23.438 121.546 22.5945 120.761 21.9531C120 21.2878 118.989 20.9552 117.728 20.9552C116.634 20.9552 115.659 21.2403 114.802 21.8105C113.97 22.357 113.351 23.0935 112.947 24.0202L110.057 22.5233C110.414 21.6442 110.985 20.8602 111.77 20.1712C112.555 19.4584 113.47 18.9001 114.517 18.4962C115.564 18.0923 116.658 17.8903 117.799 17.8903C119.274 17.8903 120.571 18.1754 121.689 18.7456C122.807 19.2921 123.675 20.0643 124.293 21.0621C124.936 22.0362 125.257 23.1766 125.257 24.4834V37.527H122.01V33.8919L122.616 34.1057C122.212 34.8661 121.665 35.5312 120.975 36.1015C120.285 36.6716 119.477 37.1231 118.549 37.4557C117.621 37.7883 116.61 37.9547 115.516 37.9547Z" fill="white"/>
<path d="M87.5444 44.6546V18.318H90.7913V22.452L90.3632 21.6323C91.0768 20.4919 92.0521 19.5891 93.2889 18.9238C94.5259 18.2348 95.9412 17.8903 97.535 17.8903C99.3428 17.8903 100.96 18.3299 102.387 19.2089C103.839 20.088 104.98 21.2878 105.813 22.8083C106.645 24.3052 107.062 26.0158 107.062 27.9403C107.062 29.8173 106.645 31.516 105.813 33.0365C104.98 34.5571 103.839 35.7569 102.387 36.636C100.96 37.5152 99.3308 37.9547 97.4993 37.9547C95.9531 37.9547 94.5377 37.6101 93.2533 36.9212C91.9925 36.2321 91.0173 35.258 90.3275 33.9988L90.8627 33.4286V44.6546H87.5444ZM97.2495 34.7472C98.4627 34.7472 99.5449 34.4502 100.496 33.8562C101.448 33.2623 102.185 32.4545 102.709 31.4329C103.256 30.3874 103.529 29.2233 103.529 27.9403C103.529 26.6098 103.256 25.4457 102.709 24.4478C102.185 23.4262 101.448 22.6184 100.496 22.0244C99.5449 21.4066 98.4627 21.0978 97.2495 21.0978C96.0364 21.0978 94.9421 21.3947 93.9669 21.9887C93.0155 22.5827 92.2542 23.4023 91.6834 24.4478C91.1363 25.4694 90.8627 26.6335 90.8627 27.9403C90.8627 29.2233 91.1363 30.3874 91.6834 31.4329C92.2542 32.4545 93.0155 33.2623 93.9669 33.8562C94.9421 34.4502 96.0364 34.7472 97.2495 34.7472Z" fill="white"/>
<path d="M56.3257 37.5619V18.3529H59.5725V22.2732L59.1087 21.6673C59.5844 20.4556 60.3455 19.529 61.3922 18.8875C62.4389 18.246 63.6164 17.9253 64.9246 17.9253C66.4231 17.9253 67.7671 18.341 68.9565 19.1726C70.1697 20.0042 71.0021 21.0971 71.4541 22.4513L70.5264 22.487C71.0259 20.9901 71.8703 19.8616 73.0597 19.1013C74.2491 18.3173 75.5692 17.9253 77.0203 17.9253C78.3523 17.9253 79.5536 18.2341 80.624 18.8518C81.7182 19.4696 82.5865 20.3249 83.2286 21.4178C83.8709 22.5107 84.192 23.7462 84.192 25.1242V37.5619H80.8381V26.1933C80.8381 25.1242 80.6477 24.2214 80.2671 23.4849C79.8866 22.7483 79.3633 22.1781 78.6972 21.7742C78.055 21.3465 77.2938 21.1327 76.4137 21.1327C75.5573 21.1327 74.7842 21.3465 74.0944 21.7742C73.4284 22.1781 72.8932 22.7601 72.4889 23.5205C72.1082 24.257 71.9179 25.1479 71.9179 26.1933V37.5619H68.564V26.1933C68.564 25.1242 68.3736 24.2214 67.9931 23.4849C67.6125 22.7483 67.0892 22.1781 66.4231 21.7742C65.7809 21.3465 65.0197 21.1327 64.1396 21.1327C63.2833 21.1327 62.5103 21.3465 61.8203 21.7742C61.1543 22.1781 60.6191 22.7601 60.2148 23.5205C59.8341 24.257 59.6438 25.1479 59.6438 26.1933V37.5619H56.3257Z" fill="white"/>
<path d="M162.988 34.9312C162.988 33.3874 164.242 32.1359 165.787 32.1359C167.332 32.1359 168.585 33.3874 168.585 34.9312C168.585 36.4752 167.332 37.7266 165.787 37.7266C164.242 37.7266 162.988 36.4752 162.988 34.9312Z" fill="white"/>
<path d="M218.254 29.8167C215.947 29.8167 214.882 28.6355 214.882 26.3353V12.1647H207.811V22.6879C206.202 19.2438 202.703 16.8606 198.638 16.8606C194.579 16.8606 191.075 19.2479 189.466 22.6879V17.0719H182.48V26.9736C182.48 28.7599 181.537 29.9701 179.963 29.9701C178.388 29.9701 177.445 28.7599 177.445 26.9736V17.0719H170.37V27.0647C170.37 33.1822 174.136 37.0285 179.967 37.0285C184.646 37.0285 187.987 34.438 189.085 30.2437C190.451 34.1935 194.213 37.0285 198.642 37.0285C203.014 37.0285 206.734 34.2681 208.146 30.3971C209.19 34.8857 212.597 36.8751 217.165 36.8751H218.955V29.8208H218.254V29.8167ZM198.638 29.9701C196.967 29.9701 195.601 28.6065 195.601 26.9404C195.601 25.2742 196.967 23.9106 198.638 23.9106C200.309 23.9106 201.675 25.2742 201.675 26.9404C201.675 28.6065 200.309 29.9701 198.638 29.9701Z" fill="white"/>
<path fill-rule="evenodd" clip-rule="evenodd" d="M43.2166 37.9C43.3193 37.9026 43.4228 37.904 43.5268 37.904C45.3205 37.904 46.9492 37.4797 48.4124 36.6309C49.8994 35.7588 51.0913 34.5799 51.9883 33.0948C52.8852 31.586 53.3336 29.8651 53.3336 27.9318C53.3336 25.9987 52.897 24.2896 52.0237 22.8044C51.174 21.3192 50.0057 20.1522 48.5187 19.3035C47.0317 18.4312 45.3677 17.9951 43.5268 17.9951C41.662 17.9951 39.9863 18.4312 38.4993 19.3035C37.0123 20.1758 35.8322 21.3545 34.9589 22.8397C34.158 24.2398 33.7345 25.8284 33.6886 27.6056H37.1601C37.204 26.4426 37.4853 25.408 38.0037 24.5018C38.5701 23.488 39.3254 22.6865 40.2696 22.0971C41.2372 21.4842 42.3229 21.1777 43.5268 21.1777C44.7069 21.1777 45.7689 21.4842 46.7131 22.0971C47.6807 22.6865 48.436 23.488 48.9789 24.5018C49.5454 25.4919 49.8286 26.6352 49.8286 27.9318C49.8286 29.2049 49.5454 30.3601 48.9789 31.3974C48.436 32.4347 47.6807 33.2479 46.7131 33.8374C45.7689 34.4268 44.7069 34.7214 43.5268 34.7214C43.4224 34.7214 43.3191 34.7193 43.2166 34.7148V37.9Z" fill="white"/>
</svg>
